<svg xmlns="http://www.w3.org/2000/svg" viewBox="0 0 653 549" width="653" height="549" role="img" aria-label="WHAT I THINK I KNOW" font-family="ui-sans-serif,-apple-system,Segoe UI,Helvetica,Arial,sans-serif"><text x="326.5" y="25" text-anchor="middle" font-size="15" font-weight="700" fill="#AE0001">WHAT I THINK I KNOW</text><g transform="translate(354.8,289.0)"><polygon points="0.0,-212.0 149.9,-149.9 212.0,0.0 149.9,149.9 0.0,212.0 -149.9,149.9 -212.0,0.0 -149.9,-149.9" fill="none" stroke="#d4b8a0" stroke-width="1" opacity="0.85"/><polygon points="0.0,-159.0 112.4,-112.4 159.0,0.0 112.4,112.4 0.0,159.0 -112.4,112.4 -159.0,0.0 -112.4,-112.4" fill="none" stroke="#d4b8a0" stroke-width="1" opacity="0.72"/><polygon points="0.0,-106.0 75.0,-75.0 106.0,0.0 75.0,75.0 0.0,106.0 -75.0,75.0 -106.0,0.0 -75.0,-75.0" fill="none" stroke="#d4b8a0" stroke-width="1" opacity="0.60"/><polygon points="0.0,-53.0 37.5,-37.5 53.0,0.0 37.5,37.5 0.0,53.0 -37.5,37.5 -53.0,0.0 -37.5,-37.5" fill="none" stroke="#d4b8a0" stroke-width="1" opacity="0.47"/><line x1="0" y1="0" x2="0.0" y2="-212.0" stroke="#e8d4b8" stroke-width="1"/><line x1="0" y1="0" x2="149.9" y2="-149.9" stroke="#e8d4b8" stroke-width="1"/><line x1="0" y1="0" x2="212.0" y2="0.0" stroke="#e8d4b8" stroke-width="1"/><line x1="0" y1="0" x2="149.9" y2="149.9" stroke="#e8d4b8" stroke-width="1"/><line x1="0" y1="0" x2="0.0" y2="212.0" stroke="#e8d4b8" stroke-width="1"/><line x1="0" y1="0" x2="-149.9" y2="149.9" stroke="#e8d4b8" stroke-width="1"/><line x1="0" y1="0" x2="-212.0" y2="0.0" stroke="#e8d4b8" stroke-width="1"/><line x1="0" y1="0" x2="-149.9" y2="-149.9" stroke="#e8d4b8" stroke-width="1"/><g><animateTransform attributeName="transform" type="scale" values="0.04;1" dur="1.1s" calcMode="spline" keyTimes="0;1" keySplines="0.22 1 0.36 1" fill="freeze"/><polygon points="0.0,-173.8 116.9,-116.9 159.0,0.0 113.9,113.9 0.0,152.6 -101.9,101.9 -137.8,0.0 -110.9,-110.9" fill="#AE0001" fill-opacity="0.22" stroke="#8b0000" stroke-width="2.5" stroke-linejoin="round"/><circle cx="0.0" cy="-173.8" r="3.6" fill="#D3A625" stroke="#8b0000" stroke-width="1.2"/><circle cx="116.9" cy="-116.9" r="3.6" fill="#D3A625" stroke="#8b0000" stroke-width="1.2"/><circle cx="159.0" cy="0.0" r="3.6" fill="#D3A625" stroke="#8b0000" stroke-width="1.2"/><circle cx="113.9" cy="113.9" r="3.6" fill="#D3A625" stroke="#8b0000" stroke-width="1.2"/><circle cx="0.0" cy="152.6" r="3.6" fill="#D3A625" stroke="#8b0000" stroke-width="1.2"/><circle cx="-101.9" cy="101.9" r="3.6" fill="#D3A625" stroke="#8b0000" stroke-width="1.2"/><circle cx="-137.8" cy="0.0" r="3.6" fill="#D3A625" stroke="#8b0000" stroke-width="1.2"/><circle cx="-110.9" cy="-110.9" r="3.6" fill="#D3A625" stroke="#8b0000" stroke-width="1.2"/></g><text x="0.0" y="-237.0" text-anchor="middle" font-size="13" font-weight="600" fill="#1a0a00">Python</text><text x="164.0" y="-169.0" text-anchor="start" font-size="13" font-weight="600" fill="#1a0a00">Java</text><text x="232.0" y="4.0" text-anchor="start" font-size="13" font-weight="600" fill="#1a0a00">C / C++</text><text x="164.0" y="178.0" text-anchor="start" font-size="13" font-weight="600" fill="#1a0a00">Web / APIs</text><text x="0.0" y="246.0" text-anchor="middle" font-size="13" font-weight="600" fill="#1a0a00">AI / ML</text><text x="-164.0" y="178.0" text-anchor="end" font-size="13" font-weight="600" fill="#1a0a00">Computer Vision</text><text x="-232.0" y="4.0" text-anchor="end" font-size="13" font-weight="600" fill="#1a0a00">IoT / Embedded</text><text x="-164.0" y="-169.0" text-anchor="end" font-size="13" font-weight="600" fill="#1a0a00">DSA</text></g></svg>